<svg width="21" height="21" viewBox="0 0 21 21" fill="none" xmlns="http://www.w3.org/2000/svg">
<path fill-rule="evenodd" clip-rule="evenodd" d="M18.4293 15.4957V16.3456C18.4293 17.2806 17.6643 18.0455 16.7294 18.0455H4.83068C3.88728 18.0455 3.13086 17.2806 3.13086 16.3456V4.44689C3.13086 3.51199 3.88728 2.74707 4.83068 2.74707H16.7294C17.6643 2.74707 18.4293 3.51199 18.4293 4.44689V5.2968H10.7801C9.83666 5.2968 9.08024 6.06172 9.08024 6.99663V13.7959C9.08024 14.7308 9.83666 15.4957 10.7801 15.4957H18.4293ZM10.7793 13.7959H19.2784V6.99658H10.7793V13.7959ZM14.1802 11.671C13.4747 11.671 12.9053 11.1016 12.9053 10.3961C12.9053 9.69072 13.4747 9.12128 14.1802 9.12128C14.8856 9.12128 15.455 9.69072 15.455 10.3961C15.455 11.1016 14.8856 11.671 14.1802 11.671Z" fill="white"/>
</svg>
