<svg width="124" height="48" viewBox="0 0 124 48" fill="none" xmlns="http://www.w3.org/2000/svg">
<g filter="url(#filter0_d_1_302)">
<rect x="4" y="2" width="116" height="40" rx="20" fill="white"/>
<circle cx="25" cy="22" r="17" fill="#E8E8E8"/>
<path fill-rule="evenodd" clip-rule="evenodd" d="M29.1322 18.0759C29.1322 20.5234 27.0717 22.4859 24.5 22.4859C21.9292 22.4859 19.8678 20.5234 19.8678 18.0759C19.8678 15.6283 21.9292 13.6667 24.5 13.6667C27.0717 13.6667 29.1322 15.6283 29.1322 18.0759ZM24.5 30.3333C20.7046 30.3333 17.5 29.7458 17.5 27.4791C17.5 25.2116 20.7247 24.6449 24.5 24.6449C28.2963 24.6449 31.5 25.2324 31.5 27.4991C31.5 29.7667 28.2753 30.3333 24.5 30.3333Z" fill="#BCBCBC"/>
<path d="M55.894 27.112C55.1473 27.112 54.452 26.986 53.808 26.734C53.1733 26.482 52.6227 26.132 52.156 25.684C51.6893 25.2267 51.3253 24.6947 51.064 24.088C50.8027 23.4813 50.672 22.8187 50.672 22.1C50.672 21.3813 50.8027 20.7187 51.064 20.112C51.3253 19.5053 51.6893 18.978 52.156 18.53C52.6227 18.0727 53.1733 17.718 53.808 17.466C54.4427 17.214 55.138 17.088 55.894 17.088C56.6407 17.088 57.3267 17.214 57.952 17.466C58.5867 17.7087 59.1373 18.0587 59.604 18.516C60.08 18.964 60.444 19.4913 60.696 20.098C60.9573 20.7047 61.088 21.372 61.088 22.1C61.088 22.828 60.9573 23.4953 60.696 24.102C60.444 24.7087 60.08 25.2407 59.604 25.698C59.1373 26.146 58.5867 26.496 57.952 26.748C57.3267 26.9907 56.6407 27.112 55.894 27.112ZM55.894 25.866C56.4353 25.866 56.9347 25.7727 57.392 25.586C57.8587 25.3993 58.26 25.138 58.596 24.802C58.9413 24.4567 59.2073 24.0553 59.394 23.598C59.59 23.1407 59.688 22.6413 59.688 22.1C59.688 21.5587 59.59 21.0593 59.394 20.602C59.2073 20.1447 58.9413 19.748 58.596 19.412C58.26 19.0667 57.8587 18.8007 57.392 18.614C56.9347 18.4273 56.4353 18.334 55.894 18.334C55.3433 18.334 54.8347 18.4273 54.368 18.614C53.9107 18.8007 53.5093 19.0667 53.164 19.412C52.8187 19.748 52.548 20.1447 52.352 20.602C52.1653 21.0593 52.072 21.5587 52.072 22.1C52.072 22.6413 52.1653 23.1407 52.352 23.598C52.548 24.0553 52.8187 24.4567 53.164 24.802C53.5093 25.138 53.9107 25.3993 54.368 25.586C54.8347 25.7727 55.3433 25.866 55.894 25.866ZM63.0318 27V16.612H64.3758V27H63.0318ZM66.942 27V19.58H68.286V27H66.942ZM67.614 18.152C67.3526 18.152 67.1333 18.068 66.956 17.9C66.788 17.732 66.704 17.5267 66.704 17.284C66.704 17.032 66.788 16.822 66.956 16.654C67.1333 16.486 67.3526 16.402 67.614 16.402C67.8753 16.402 68.09 16.486 68.258 16.654C68.4353 16.8127 68.524 17.0133 68.524 17.256C68.524 17.508 68.44 17.7227 68.272 17.9C68.104 18.068 67.8846 18.152 67.614 18.152ZM72.7981 27L69.5501 19.58H70.9501L73.8341 26.3H73.1621L76.1021 19.58H77.4181L74.1701 27H72.7981ZM78.6724 27V19.58H80.0164V27H78.6724ZM79.3444 18.152C79.0831 18.152 78.8638 18.068 78.6864 17.9C78.5184 17.732 78.4344 17.5267 78.4344 17.284C78.4344 17.032 78.5184 16.822 78.6864 16.654C78.8638 16.486 79.0831 16.402 79.3444 16.402C79.6058 16.402 79.8204 16.486 79.9884 16.654C80.1658 16.8127 80.2544 17.0133 80.2544 17.256C80.2544 17.508 80.1704 17.7227 80.0024 17.9C79.8344 18.068 79.6151 18.152 79.3444 18.152ZM85.8866 27.084C85.0933 27.084 84.3933 26.9207 83.7866 26.594C83.1893 26.2673 82.7226 25.8193 82.3866 25.25C82.0599 24.6807 81.8966 24.0273 81.8966 23.29C81.8966 22.5527 82.0553 21.8993 82.3726 21.33C82.6993 20.7607 83.1426 20.3173 83.7026 20C84.2719 19.6733 84.9113 19.51 85.6206 19.51C86.3393 19.51 86.9739 19.6687 87.5246 19.986C88.0753 20.3033 88.5046 20.7513 88.8126 21.33C89.1299 21.8993 89.2886 22.5667 89.2886 23.332C89.2886 23.388 89.2839 23.4533 89.2746 23.528C89.2746 23.6027 89.2699 23.6727 89.2606 23.738H82.9466V22.772H88.5606L88.0146 23.108C88.0239 22.632 87.9259 22.2073 87.7206 21.834C87.5153 21.4607 87.2306 21.1713 86.8666 20.966C86.5119 20.7513 86.0966 20.644 85.6206 20.644C85.1539 20.644 84.7386 20.7513 84.3746 20.966C84.0106 21.1713 83.7259 21.4653 83.5206 21.848C83.3153 22.2213 83.2126 22.6507 83.2126 23.136V23.36C83.2126 23.8547 83.3246 24.298 83.5486 24.69C83.7819 25.0727 84.1039 25.3713 84.5146 25.586C84.9253 25.8007 85.3966 25.908 85.9286 25.908C86.3673 25.908 86.7639 25.8333 87.1186 25.684C87.4826 25.5347 87.7999 25.3107 88.0706 25.012L88.8126 25.88C88.4766 26.272 88.0566 26.5707 87.5526 26.776C87.0579 26.9813 86.5026 27.084 85.8866 27.084ZM91.1549 27V19.58H92.4429V21.596L92.3169 21.092C92.5222 20.5787 92.8675 20.1867 93.3529 19.916C93.8382 19.6453 94.4355 19.51 95.1449 19.51V20.812C95.0889 20.8027 95.0329 20.798 94.9769 20.798C94.9302 20.798 94.8835 20.798 94.8369 20.798C94.1182 20.798 93.5489 21.0127 93.1289 21.442C92.7089 21.8713 92.4989 22.492 92.4989 23.304V27H91.1549Z" fill="#272727"/>
<path d="M109.94 20.0299C110.23 19.7299 110.7 19.7299 111 20.0199C111.15 20.1699 111.22 20.3599 111.22 20.5599C111.22 20.7499 111.15 20.9399 111 21.0799L107.53 24.5699C107.39 24.7099 107.2 24.7899 107 24.7899C106.8 24.7899 106.61 24.7099 106.47 24.5699L103 21.0799C102.7 20.7899 102.7 20.3199 103 20.0199C103.29 19.7299 103.77 19.7299 104.06 20.0299L107 22.9799L109.94 20.0299Z" fill="#3F7FFF"/>
</g>
<defs>
<filter id="filter0_d_1_302" x="0" y="0" width="124" height="48" filterUnits="userSpaceOnUse" color-interpolation-filters="sRGB">
<feFlood flood-opacity="0" result="BackgroundImageFix"/>
<feColorMatrix in="SourceAlpha" type="matrix" values="0 0 0 0 0 0 0 0 0 0 0 0 0 0 0 0 0 0 127 0" result="hardAlpha"/>
<feOffset dy="2"/>
<feGaussianBlur stdDeviation="2"/>
<feComposite in2="hardAlpha" operator="out"/>
<feColorMatrix type="matrix" values="0 0 0 0 0 0 0 0 0 0 0 0 0 0 0 0 0 0 0.25 0"/>
<feBlend mode="normal" in2="BackgroundImageFix" result="effect1_dropShadow_1_302"/>
<feBlend mode="normal" in="SourceGraphic" in2="effect1_dropShadow_1_302" result="shape"/>
</filter>
</defs>
</svg>
