<svg width="200" height="173" viewBox="0 0 200 173" fill="none" xmlns="http://www.w3.org/2000/svg">
<g clip-path="url(#clip0_1_446)">
<path opacity="0.44" d="M65.8769 155.981C65.8769 155.981 -2.2171 155.042 0.0527021 157.976C8.48152 168.906 40.573 161.438 40.7913 162.325C41.0095 163.212 47.6705 174.389 73.8998 172.853C100.129 171.317 99.1557 164.982 103.582 163.298C108.008 161.615 183.016 170.122 195.784 160.036C204.566 153.112 199.276 150.892 183.007 149.555C44.436 138.171 65.8769 155.981 65.8769 155.981Z" fill="#3F7FFF"/>
<path opacity="0.1" d="M32.7114 15.2014C32.7114 15.2014 43.3707 -3.05063 71.5294 0.441395C99.688 3.93342 96.5888 19.8617 116.092 19.0871C135.594 18.3126 156.817 7.04465 174.146 29.1694C194.225 54.8295 159.903 76.6601 173.539 92.346C197.983 120.442 173.539 153.562 118.977 147.275C73.7293 142.082 73.3234 134.748 47.0592 143.61C20.7949 152.472 -3.08598 119.75 6.46464 94.1375C16.0153 68.525 40.2585 78.2871 28.8964 57.3566C17.5343 36.4261 32.7114 15.2014 32.7114 15.2014Z" fill="#3F7FFF"/>
<path d="M51.5028 96.7423H15.2296V125.393H51.5028V96.7423Z" fill="#E4AC6F"/>
<path d="M53.9646 96.7423H37.7922V125.393H53.9646V96.7423Z" fill="#DB9166"/>
<path d="M29.2105 96.7423H23.2261V106.193H29.2105V96.7423Z" fill="#EDC78F"/>
<path d="M23.2261 106.193V107.033L24.2257 106.193L23.2261 105.354V106.193Z" fill="#EDC78F"/>
<path d="M24.2256 106.193L25.2208 107.032L26.2204 106.193L25.2208 105.353L24.2256 106.193Z" fill="#EDC78F"/>
<path d="M26.2203 106.193L27.2155 107.033L28.2151 106.193L27.2155 105.354L26.2203 106.193Z" fill="#EDC78F"/>
<path d="M28.2154 106.193L29.2106 107.032V106.193V105.353L28.2154 106.193Z" fill="#EDC78F"/>
<path d="M22.6369 126.072C22.6369 126.072 20.2842 122.312 19.756 118.417C19.2279 114.523 17.3335 107.379 16.12 105.782C14.9065 104.185 23.4401 108.209 23.6322 115.86C23.7544 120.676 27.0849 123.073 25.7928 125.111C24.5008 127.149 22.6369 126.072 22.6369 126.072Z" fill="#25AC7A"/>
<path d="M24.073 121.394C24.073 121.394 21.6679 114.064 24.946 106.353C26.9626 101.619 24.6404 97.3006 25.5571 98.2829C26.4737 99.2651 29.5511 100.425 29.2237 106.171C28.8963 111.918 28.1063 117.387 28.6606 120.018C29.215 122.649 29.9046 124.025 27.7876 124.025C25.6706 124.025 24.073 121.394 24.073 121.394Z" fill="#25AC7A"/>
<path d="M28.0582 122.822C28.0102 122.506 27.0368 115.583 29.5511 111.533C32.0653 107.482 30.3193 102.199 31.0264 102.8C31.7335 103.402 34.6974 107.37 34.0295 112.45C33.5124 116.131 32.4842 119.723 30.974 123.125C30.3891 124.423 28.2852 124.341 28.0582 122.822Z" fill="#25AC7A"/>
<path d="M32.1178 120.308H19.9351C19.7165 120.308 19.5006 120.357 19.3035 120.451C19.1063 120.544 18.9329 120.681 18.7959 120.85C18.659 121.019 18.562 121.216 18.5121 121.427C18.4622 121.638 18.4608 121.858 18.5077 122.069L20.0399 128.88C20.113 129.202 20.2941 129.489 20.5534 129.695C20.8128 129.901 21.1349 130.013 21.4672 130.014H30.5857C30.9175 130.013 31.239 129.9 31.4976 129.694C31.7562 129.488 31.9364 129.201 32.0087 128.88L33.5452 122.052C33.5892 121.842 33.5854 121.624 33.5342 121.415C33.4829 121.206 33.3855 121.011 33.2488 120.844C33.1122 120.677 32.9399 120.543 32.7442 120.45C32.5486 120.357 32.3347 120.309 32.1178 120.308Z" fill="#CE5E4C"/>
<path d="M152.845 94.8904C157.278 94.8904 160.872 91.3277 160.872 86.9328C160.872 82.5379 157.278 78.9751 152.845 78.9751C148.412 78.9751 144.818 82.5379 144.818 86.9328C144.818 91.3277 148.412 94.8904 152.845 94.8904Z" fill="#352B4C"/>
<path d="M152.845 89.7844C154.433 89.7844 155.721 88.5077 155.721 86.9328C155.721 85.3579 154.433 84.0812 152.845 84.0812C151.256 84.0812 149.968 85.3579 149.968 86.9328C149.968 88.5077 151.256 89.7844 152.845 89.7844Z" fill="#B7B7B7"/>
<path d="M100.727 94.8904C105.16 94.8904 108.754 91.3277 108.754 86.9328C108.754 82.5379 105.16 78.9751 100.727 78.9751C96.2935 78.9751 92.6996 82.5379 92.6996 86.9328C92.6996 91.3277 96.2935 94.8904 100.727 94.8904Z" fill="#352B4C"/>
<path d="M100.727 89.7844C102.316 89.7844 103.603 88.5077 103.603 86.9328C103.603 85.3579 102.316 84.0812 100.727 84.0812C99.1382 84.0812 97.8503 85.3579 97.8503 86.9328C97.8503 88.5077 99.1382 89.7844 100.727 89.7844Z" fill="#B7B7B7"/>
<path d="M121.4 30.4156H86.6062V79.4467H121.4V30.4156Z" fill="#BE5C51"/>
<path d="M156.206 30.4156H86.6062V54.4789H156.206V30.4156Z" fill="#D98B64"/>
<path d="M156.084 30.4156H100.395V79.4467H156.084V30.4156Z" fill="#EFCC98"/>
<path d="M86.6062 78.5208V86.3097H180.707C181.646 86.3097 182.546 85.94 183.21 85.2819C183.874 84.6238 184.247 83.7311 184.247 82.8004V78.5208H86.6062Z" fill="#352B4C"/>
<path d="M156.088 39.8575V78.5207H176.748V51.8004C176.732 48.6176 175.441 45.5715 173.16 43.3319C170.878 41.0922 167.793 39.8425 164.582 39.8575H156.088Z" fill="#E4AC6F"/>
<path d="M171.283 56.5906V78.5207H184.247V66.0239C184.247 64.5471 183.78 63.1074 182.913 61.9069C182.045 60.7063 180.821 59.8051 179.41 59.3297L171.283 56.5906Z" fill="#E4AC6F"/>
<path d="M166.176 45.7165V55.3185C166.209 56.1602 166.577 56.9548 167.199 57.5281C167.822 58.1015 168.648 58.407 169.498 58.3778H176.748V51.8005C176.748 50.0539 176.358 48.3289 175.609 46.7485C174.859 45.168 173.766 43.7711 172.409 42.6572H169.484C168.637 42.6314 167.814 42.9385 167.195 43.5115C166.575 44.0845 166.209 44.877 166.176 45.7165Z" fill="#352B4C"/>
<path d="M117.794 94.8904C122.227 94.8904 125.821 91.3277 125.821 86.9328C125.821 82.5379 122.227 78.9751 117.794 78.9751C113.361 78.9751 109.767 82.5379 109.767 86.9328C109.767 91.3277 113.361 94.8904 117.794 94.8904Z" fill="#352B4C"/>
<path d="M117.794 89.7844C119.383 89.7844 120.671 88.5077 120.671 86.9328C120.671 85.3579 119.383 84.0812 117.794 84.0812C116.205 84.0812 114.918 85.3579 114.918 86.9328C114.918 88.5077 116.205 89.7844 117.794 89.7844Z" fill="#FEFEFF"/>
<path d="M166.049 94.8904C170.482 94.8904 174.076 91.3277 174.076 86.9328C174.076 82.5379 170.482 78.9751 166.049 78.9751C161.615 78.9751 158.022 82.5379 158.022 86.9328C158.022 91.3277 161.615 94.8904 166.049 94.8904Z" fill="#352B4C"/>
<path d="M166.049 89.7844C167.638 89.7844 168.925 88.5077 168.925 86.9328C168.925 85.3579 167.638 84.0812 166.049 84.0812C164.46 84.0812 163.172 85.3579 163.172 86.9328C163.172 88.5077 164.46 89.7844 166.049 89.7844Z" fill="#FEFEFF"/>
<path d="M159.388 39.8186H156.088V78.5251H159.388V39.8186Z" fill="#D98B64"/>
<path d="M60.9922 125.393H1.80713V156.972H60.9922V125.393Z" fill="#D98B64"/>
<path d="M67.771 125.393H27.6916V156.972H67.771V125.393Z" fill="#BE5C51"/>
<path d="M138.563 99.8926H99.6445V127.599H138.563V99.8926Z" fill="#E4AC6F"/>
<path d="M138.445 99.8926H120.836V127.599H138.445V99.8926Z" fill="#DB9166"/>
<path d="M126.646 99.8926V108.504V109.343V110.183L127.646 109.343L128.645 110.183L129.64 109.343L130.64 110.183L131.635 109.343L132.635 110.183V109.343V108.504V99.8926H126.646Z" fill="#EDC78F"/>
<path d="M28.5819 127.716H22.8899V136.704H28.5819V127.716Z" fill="#EDC78F"/>
<path d="M22.8943 136.704V137.504L23.8415 136.704L22.8943 135.903V136.704Z" fill="#EDC78F"/>
<path d="M23.8419 136.704L24.7891 137.504L25.7406 136.704L24.7891 135.903L23.8419 136.704Z" fill="#EDC78F"/>
<path d="M25.7405 136.704L26.6877 137.504L27.6349 136.704L26.6877 135.903L25.7405 136.704Z" fill="#EDC78F"/>
<path d="M27.6347 136.704L28.5863 137.504V136.704V135.903L27.6347 136.704Z" fill="#EDC78F"/>
<path d="M172.771 95.7731H149.205C141.594 95.7731 135.424 101.889 135.424 109.434V136.725C135.424 144.27 141.594 150.386 149.205 150.386H172.771C180.382 150.386 186.551 144.27 186.551 136.725V109.434C186.551 101.889 180.382 95.7731 172.771 95.7731Z" fill="#3F7FFF"/>
<path d="M147.602 128.262H174.377C177.607 128.262 180.705 129.533 182.989 131.798C185.273 134.062 186.556 137.132 186.556 140.334V152.377C186.556 153.869 185.958 155.3 184.894 156.355C183.829 157.409 182.386 158.002 180.881 158.002H140.675C139.286 158.002 137.954 157.455 136.971 156.481C135.989 155.507 135.437 154.187 135.437 152.81V140.33C135.438 137.131 136.72 134.063 139.001 131.801C141.282 129.538 144.376 128.265 147.602 128.262Z" fill="#1F5AD0"/>
<path d="M134.73 121.559H131.43C128.538 121.559 126.192 123.884 126.192 126.751V153.061C126.192 155.928 128.538 158.253 131.43 158.253H134.73C137.623 158.253 139.968 155.928 139.968 153.061V126.751C139.968 123.884 137.623 121.559 134.73 121.559Z" fill="#1261FF"/>
<path d="M190.55 121.559H187.25C184.357 121.559 182.012 123.883 182.012 126.751V153.06C182.012 155.928 184.357 158.253 187.25 158.253H190.55C193.443 158.253 195.788 155.928 195.788 153.06V126.751C195.788 123.883 193.443 121.559 190.55 121.559Z" fill="#1261FF"/>
<path d="M133.495 135.73L133.573 158.305L165.739 158.262L165.66 135.687L133.495 135.73Z" fill="#E4AC6F"/>
<path d="M158.821 135.696L158.895 158.27L167.821 158.257L167.747 135.683L158.821 135.696Z" fill="#DB9166"/>
<path d="M142.819 135.687V142.796V143.493V144.185L143.644 143.493L144.469 144.185L145.294 143.493L146.119 144.185L146.939 143.493L147.764 144.185V143.493V142.796V135.687H142.819Z" fill="#EDC78F"/>
<path d="M133.569 126.725H96.3577V158.305H133.569V126.725Z" fill="#D98B64"/>
<path d="M133.66 126.725H126.685V158.305H133.66V126.725Z" fill="#BE5C51"/>
<path d="M108.335 126.725V135.332V136.171V137.015L109.33 136.171L110.33 137.015L111.329 136.171L112.325 137.015L113.324 136.171L114.319 137.015V136.171V135.332V126.725H108.335Z" fill="#EDC78F"/>
<path d="M158.895 135.367H146.297V133.761C146.297 133.57 146.335 133.381 146.409 133.205C146.483 133.029 146.591 132.868 146.727 132.733C146.863 132.598 147.025 132.491 147.203 132.418C147.381 132.345 147.571 132.307 147.764 132.307H157.428C157.621 132.307 157.811 132.345 157.989 132.418C158.167 132.491 158.329 132.598 158.465 132.733C158.601 132.868 158.709 133.029 158.783 133.205C158.857 133.381 158.895 133.57 158.895 133.761V135.367Z" fill="#352B4C"/>
<path d="M152.684 122.965H152.505C151.55 122.965 150.776 123.732 150.776 124.678V132.121C150.776 133.068 151.55 133.835 152.505 133.835H152.684C153.638 133.835 154.412 133.068 154.412 132.121V124.678C154.412 123.732 153.638 122.965 152.684 122.965Z" fill="#352B4C"/>
<path d="M143.325 126.76H161.867C162.201 126.763 162.531 126.691 162.833 126.549C163.135 126.408 163.401 126.201 163.611 125.943C163.821 125.686 163.969 125.384 164.045 125.062C164.121 124.74 164.123 124.404 164.05 124.081L161.714 113.696C161.606 113.204 161.329 112.763 160.932 112.448C160.535 112.133 160.041 111.963 159.532 111.965H145.656C145.147 111.963 144.653 112.134 144.256 112.449C143.859 112.764 143.583 113.204 143.473 113.696L141.142 124.081C141.069 124.404 141.071 124.74 141.147 125.062C141.223 125.384 141.371 125.686 141.581 125.943C141.791 126.201 142.057 126.408 142.359 126.549C142.661 126.691 142.991 126.763 143.325 126.76Z" fill="#EFCC98"/>
<path d="M83.2844 66.5691C83.2844 66.5691 91.0236 78.3476 91.1414 82.6099C91.2593 86.8721 83.5812 91.6969 80.1503 89.5333C76.7194 87.3697 73.2493 77.7029 72.481 73.6526C71.7128 69.6024 79.1507 59.6845 83.2844 66.5691Z" fill="#DA8E8D"/>
<path d="M96.1304 75.5436H72.4896V95.6044H96.1304V75.5436Z" fill="#E4AC6F"/>
<path d="M83.7296 75.5436H71.1846V95.6044H83.7296V75.5436Z" fill="#DB9166"/>
<path d="M58.7224 43.0682C58.7224 43.0682 60.5339 51.4975 59.5212 52.35C58.5085 53.2024 51.4154 54.7126 50.7214 53.9813C50.0273 53.25 48.05 47.0579 47.8317 45.8289C47.6135 44.6 58.7224 43.0682 58.7224 43.0682Z" fill="#DA8E8D"/>
<path d="M57.535 50.4721C57.535 50.4721 57.9322 55.7296 59.0235 57.1662C60.1147 58.6028 65.5317 58.5855 65.894 59.3038C66.2563 60.0221 62.7555 69.1568 59.1326 69.5376C51.6684 70.3164 43.8202 62.0343 44.2916 61.2121C44.763 60.3899 50.9002 59.438 51.7121 58.3605C52.524 57.283 51.0268 49.9918 51.0268 49.9918L57.535 50.4721Z" fill="#DA8E8D"/>
<path d="M47.5044 40.0912C47.5044 40.0912 51.8039 37.0362 56.5268 39.9657C61.2498 42.8952 60.5514 52.8563 54.807 53.4578C49.8309 53.977 44.9203 45.6559 47.5044 40.0912Z" fill="#DA8E8D"/>
<path d="M49.3156 48.7932C49.3156 48.7932 47.5478 45.3315 46.4216 48.1268C45.7931 49.6846 46.9367 50.6149 47.9363 51.1558C49.7478 52.0818 50.4767 49.6586 49.3156 48.7932Z" fill="#DA8E8D"/>
<path d="M58.4952 46.582C58.4952 46.582 57.7618 43.4924 59.9749 44.6045C61.2102 45.2233 60.9788 46.4176 60.6253 47.283C59.9836 48.8278 58.2245 47.746 58.4952 46.582Z" fill="#DA8E8D"/>
<path d="M48.2899 50.1259C48.264 49.948 48.1984 49.778 48.098 49.6283C47.9976 49.4786 47.8648 49.353 47.7094 49.2604C47.6182 49.2224 47.5202 49.2027 47.4213 49.2027C47.3223 49.2027 47.2244 49.2224 47.1332 49.2604L46.9368 48.8667C47.0869 48.8021 47.2489 48.7688 47.4125 48.7688C47.5762 48.7688 47.7382 48.8021 47.8883 48.8667C48.1016 48.9821 48.2865 49.1428 48.4299 49.3373C48.5733 49.5318 48.6715 49.7552 48.7177 49.9917L48.2899 50.1259Z" fill="#D26E7E"/>
<path d="M53.3316 50.1908C53.3316 50.1908 55.1431 49.996 55.6581 49.8749C56.1732 49.7537 55.7454 51.4673 54.9292 51.6534C54.1129 51.8394 52.8252 50.3119 53.3316 50.1908Z" fill="#FEFEFF"/>
<path d="M54.0256 46.3439C54.0256 46.3439 53.707 49.4205 53.8772 49.4638C54.0474 49.5071 55.6756 49.1306 55.6974 48.9619C55.7192 48.7931 53.8728 45.5218 54.0256 46.3439Z" fill="#D26E7E"/>
<path d="M46.5352 44.3579C46.5352 44.3579 44.8416 39.0917 47.5784 37.4733C49.4379 36.3742 54.7458 34.9809 55.9636 35.9372C57.1814 36.8935 58.0806 40.9134 58.0675 41.3937C58.0544 41.8741 46.5352 44.3579 46.5352 44.3579Z" fill="#3F7FFF"/>
<path d="M55.9263 47.1714C56.2027 47.1182 56.3618 46.7429 56.2816 46.333C56.2015 45.9232 55.9124 45.634 55.636 45.6871C55.3596 45.7403 55.2005 46.1156 55.2806 46.5254C55.3608 46.9353 55.6498 47.2245 55.9263 47.1714Z" fill="#352B4C"/>
<path d="M51.4352 48.1965C51.712 48.1427 51.8707 47.7665 51.7896 47.356C51.7086 46.9456 51.4184 46.6564 51.1416 46.7102C50.8648 46.7639 50.7062 47.1402 50.7872 47.5506C50.8683 47.961 51.1584 48.2502 51.4352 48.1965Z" fill="#352B4C"/>
<path d="M48.9666 43.8471C48.9666 43.8471 49.438 45.9069 48.9666 46.4737C48.4952 47.0406 49.6083 49.2258 49.6083 49.4638C49.6083 49.7018 48.2988 49.4638 47.4956 47.3002C46.6924 45.1366 46.1861 44.2279 46.7929 44.1327C47.3996 44.0375 48.7222 43.5313 48.9666 43.8471Z" fill="#352B4C"/>
<path d="M56.3828 42.0384C56.3828 42.0384 57.1815 43.9986 57.893 44.202C58.6045 44.4054 58.9494 46.7983 59.0891 47.019C59.2287 47.2397 60.141 46.2834 59.5736 44.0376C59.0061 41.7918 58.8708 40.7836 58.3252 41.0389C57.7795 41.2942 56.4002 41.6403 56.3828 42.0384Z" fill="#352B4C"/>
<path d="M46.7927 44.1241C46.7927 44.1241 52.991 42.3932 54.9815 40.2599C56.9719 38.1266 59.3727 36.2833 60.7258 37.43C62.079 38.5766 61.2278 40.433 57.2556 41.7571C53.8758 42.9572 50.3631 43.7518 46.7927 44.1241Z" fill="#352B4C"/>
<path d="M53.1656 54.0463C53.1656 54.0463 57.2382 53.7001 57.8362 53.0683C57.8362 53.0683 58.6219 56.4608 58.7616 56.7248C58.9013 56.9887 55.9854 56.8849 54.6192 56.344C53.2529 55.8031 52.6156 54.2972 53.1656 54.0463Z" fill="#D26E7E"/>
<path d="M51.2887 45.6256C51.2887 45.6256 50.1276 46.2444 49.8744 46.4089C49.6213 46.5733 49.5296 46.1016 50.1494 45.6256C50.7692 45.1497 51.328 45.366 51.2887 45.6256Z" fill="#352B4C"/>
<path d="M57.247 44.3751C57.247 44.3751 55.9375 44.3751 55.6276 44.4183C55.3177 44.4616 55.4617 43.9856 56.2343 43.8515C57.0069 43.7173 57.4128 44.1414 57.247 44.3751Z" fill="#352B4C"/>
<path d="M51.6992 58.3474C51.6992 58.3474 54.5888 63.8083 58.0677 62.2116C61.5467 60.6148 59.4995 57.6724 61.3415 57.5815C63.1835 57.4906 68.0287 56.5343 71.7869 58.6849C75.5452 60.8355 77.6317 72.9992 77.4178 81.7703C77.3654 83.869 77.8805 97.8934 76.2654 98.5121C74.6504 99.1309 48.9056 98.3088 45.466 98.5727C42.0264 98.8367 43.6632 84.2195 43.2136 80.9006C42.5022 75.6214 35.6098 62.8044 36.3257 61.6923C37.0415 60.5802 48.8139 57.7979 51.6992 58.3474Z" fill="#352B4C"/>
<path d="M52 157.764C52 157.764 61.4764 162.844 59.307 163.151C57.1376 163.459 49.1409 163.208 47.6568 163.151C46.308 163.095 46.308 162.537 46.308 162.537L46.7969 157.375L52 157.764Z" fill="#352B4C"/>
<path d="M88.4306 152.619C88.5092 151.805 97.5753 152.667 97.4968 153.484C97.2872 155.648 88.8235 158.742 87.5271 159.46C86.0604 160.278 85.672 158.521 85.672 158.521L84.3145 154.571L88.4306 152.619Z" fill="#352B4C"/>
<path d="M39.3722 61.7053C39.3722 61.7053 16.4603 72.1944 22.2658 84.0811C22.2658 84.0811 26.3252 86.5562 30.341 84.9855C34.3568 83.4147 44.2218 76.5648 45.3741 73.9555C46.5265 71.3463 39.3722 61.7053 39.3722 61.7053Z" fill="#DA8E8D"/>
<path d="M85.6151 70.2906C85.6151 70.2906 80.9184 72.6791 72.4896 75.5437C70.569 76.1971 66.3131 57.3393 68.046 56.8634C71.2237 55.9893 81.9834 59.7885 85.6151 70.2906Z" fill="#352B4C"/>
<path d="M28.4336 66.5691C28.4336 66.5691 34.5752 80.5588 37.4124 79.451C40.2497 78.3433 47.5043 73.3541 46.2428 70.364C44.9813 67.3739 41.5897 59.7235 39.9005 60.2428C35.6185 61.4015 31.6837 63.5723 28.4336 66.5691Z" fill="#352B4C"/>
<path d="M47.8275 58.5379C47.8275 58.5379 51.7079 68.8928 54.4884 69.5895C57.269 70.2862 69.0894 68.0144 69.0894 68.0144C68.164 63.0987 63.7641 57.296 63.7641 57.296C63.7641 57.296 66.9418 56.4782 68.0549 56.8633C69.168 57.2484 74.8294 64.2671 76.9333 73.2113C78.2428 78.7371 79.7967 98.7416 79.7967 98.7416C77.3567 101.745 44.6934 104.925 44.2612 103.138C40.455 87.2789 48.9755 85.1673 47.8362 73.6008C47.2338 67.4822 43.0914 59.386 43.0914 59.386C44.5984 58.7972 46.2079 58.509 47.8275 58.5379Z" fill="#3F7FFF"/>
<path d="M48.7355 68.8755C48.7355 68.8755 52.5593 65.7297 52.9477 63.8863C53.3362 62.0429 55.008 65.5955 52.7644 67.9755C52.7644 67.9755 55.3223 69.6371 55.1608 71.4935C54.9993 73.3498 54.2878 78.1011 51.7692 77.0539C49.2506 76.0067 45.3745 73.9556 45.3745 73.9556C45.3745 73.9556 44.7066 69.7713 48.7355 68.8755Z" fill="#DA8E8D"/>
<path d="M48.7351 68.8755C48.7351 68.8755 27.6041 74.2585 24.0205 77.9626C20.4368 81.6666 21.0741 86.4308 28.4335 87.6511C34.7933 88.7069 46.0332 77.5039 48.2855 75.4398C50.5378 73.3758 48.7351 68.8755 48.7351 68.8755Z" fill="#DA8E8D"/>
<path d="M43.0825 157.708C43.0825 157.708 51.1097 158.275 55.0863 157.764C59.0628 157.253 63.8162 138.434 64.4754 131.338C65.1345 124.241 65.9202 107.668 65.9202 107.668C65.9202 107.668 71.6558 118.486 73.3887 126.708C74.5323 132.13 78.9017 154.7 81.6255 154.774C84.7159 154.856 92.813 152.013 92.7257 149.828C92.682 148.681 92.132 125.665 89.142 117.854C86.152 110.044 80.1632 96.2187 79.1025 95.4917C78.0418 94.7648 44.1257 100.546 44.2523 103.168C44.3789 105.79 46.7928 119.274 46.2428 125.332C46.0114 127.829 40.1492 157.937 43.0825 157.708Z" fill="#3F7FFF"/>
<path d="M92.6603 148.011C92.6603 148.011 87.9505 152.732 86.0386 140.261C84.1267 127.79 85.4362 118.452 80.4732 109.577C75.5102 100.702 75.5146 89.9228 74.4495 83.6527C73.3845 77.3827 74.1222 65.8248 74.4495 66.5475C78.413 75.3316 77.6403 77.0279 79.0983 83.6527C80.5562 90.2776 80.9796 98.3088 83.747 104.804C86.5144 111.299 91.5341 114.986 92.6603 148.011Z" fill="#296FF9"/>
<path d="M57.5523 155.458C57.5523 155.458 55.1516 155.263 54.1826 151.602C53.2135 147.941 60.0709 129.897 59.6301 122.307C59.1892 114.718 65.9724 106.608 65.8764 108.586C65.7804 110.563 65.7236 125.332 64.3181 132.671C62.9126 140.01 60.2979 151.572 57.5523 155.458Z" fill="#296FF9"/>
<path d="M32.4845 74.687C32.4845 74.687 29.1715 76.089 28.4338 76.4395C27.6961 76.79 30.4592 70.7839 30.4592 70.7839C30.4592 70.7839 32.4234 73.5879 32.4845 74.687Z" fill="#D26E7E"/>
<path d="M86.3135 75.5609V84.172V85.0115V85.8509L87.3088 85.0115L88.3083 85.8509L89.3036 85.0115L90.3031 85.8509L91.2984 85.0115L92.298 85.8509V85.0115V84.172V75.5609H86.3135Z" fill="#EDC78F"/>
<path d="M96.7111 83.3887C96.7111 83.3887 94.3278 83.1723 92.9921 84.332C92.3548 84.8816 95.5413 85.1282 95.5413 85.1282C95.5413 85.1282 90.2421 85.8076 90.3644 86.7509C90.4866 87.6942 94.1619 87.2399 94.1619 87.2399C94.1619 87.2399 89.941 87.2399 90.3993 88.1053C91.1151 89.4554 93.9393 88.7803 93.9393 88.7803C93.9393 88.7803 90.4473 89.6458 91.6608 90.1737C92.8742 90.7016 96.052 90.5199 97.296 89.8838C98.54 89.2477 99.7709 84.5397 96.7111 83.3887Z" fill="#DA8E8D"/>
</g>
<defs>
<clipPath id="clip0_1_446">
<rect width="200" height="173" fill="white"/>
</clipPath>
</defs>
</svg>
