<svg width="124" height="46" viewBox="0 0 124 46" fill="none" xmlns="http://www.w3.org/2000/svg">
<path d="M18.7959 42.6448V33.7801H20.2522V42.6448H18.7959Z" fill="#3F7FFF"/>
<path d="M26.1486 42.6448V39.137C26.1486 38.7317 26.0177 38.3982 25.756 38.1365C25.5027 37.8748 25.1734 37.7439 24.7682 37.7439C24.498 37.7439 24.2574 37.803 24.0464 37.9212C23.8353 38.0394 23.6707 38.204 23.5525 38.4151C23.4343 38.6262 23.3752 38.8668 23.3752 39.137L22.8306 38.833C22.8306 38.3687 22.9319 37.9592 23.1346 37.6046C23.3372 37.2416 23.6158 36.9588 23.9704 36.7561C24.3334 36.5451 24.7387 36.4395 25.1861 36.4395C25.642 36.4395 26.0473 36.5577 26.4018 36.7941C26.7564 37.0221 27.035 37.3218 27.2377 37.6933C27.4403 38.0563 27.5416 38.4362 27.5416 38.833V42.6448H26.1486ZM21.9821 42.6448V36.5662H23.3752V42.6448H21.9821Z" fill="#3F7FFF"/>
<path d="M32.2118 42.7715C31.7474 42.7715 31.3338 42.6744 30.9707 42.4802C30.6077 42.2776 30.3207 42.0032 30.1096 41.6571C29.907 41.3109 29.8057 40.9183 29.8057 40.4793V38.7317C29.8057 38.2927 29.9112 37.9001 30.1223 37.554C30.3333 37.2078 30.6204 36.9377 30.9834 36.7435C31.3464 36.5409 31.7559 36.4395 32.2118 36.4395C32.7606 36.4395 33.2544 36.5831 33.6935 36.8701C34.1409 37.1487 34.4913 37.5286 34.7446 38.0099C35.0063 38.4827 35.1371 39.0188 35.1371 39.6182C35.1371 40.2092 35.0063 40.7453 34.7446 41.2265C34.4913 41.6993 34.1409 42.075 33.6935 42.3536C33.2544 42.6322 32.7606 42.7715 32.2118 42.7715ZM31.9838 41.4544C32.3215 41.4544 32.617 41.3785 32.8703 41.2265C33.132 41.0661 33.3347 40.8466 33.4782 40.568C33.6301 40.2894 33.7061 39.9685 33.7061 39.6055C33.7061 39.2425 33.6301 38.9217 33.4782 38.6431C33.3347 38.3645 33.132 38.1492 32.8703 37.9972C32.617 37.8368 32.3215 37.7566 31.9838 37.7566C31.6461 37.7566 31.3464 37.8368 31.0847 37.9972C30.823 38.1492 30.6204 38.3645 30.4768 38.6431C30.3333 38.9217 30.2616 39.2425 30.2616 39.6055C30.2616 39.9685 30.3333 40.2894 30.4768 40.568C30.6204 40.8466 30.823 41.0661 31.0847 41.2265C31.3464 41.3785 31.6461 41.4544 31.9838 41.4544ZM28.9572 42.6448V33.5269H30.3502V38.0605L30.1096 39.5295L30.3502 41.0112V42.6448H28.9572Z" fill="#3F7FFF"/>
<path d="M39.0893 42.7715C38.4983 42.7715 37.9622 42.6322 37.481 42.3536C36.9997 42.0665 36.6156 41.6824 36.3285 41.2012C36.0499 40.7199 35.9106 40.1838 35.9106 39.5929C35.9106 39.0019 36.0499 38.47 36.3285 37.9972C36.6156 37.5244 36.9997 37.1487 37.481 36.8701C37.9622 36.5831 38.4983 36.4395 39.0893 36.4395C39.6887 36.4395 40.229 36.5788 40.7102 36.8575C41.1915 37.1361 41.5714 37.516 41.85 37.9972C42.137 38.47 42.2806 39.0019 42.2806 39.5929C42.2806 40.1838 42.137 40.7199 41.85 41.2012C41.5714 41.6824 41.1915 42.0665 40.7102 42.3536C40.229 42.6322 39.6887 42.7715 39.0893 42.7715ZM39.0893 41.4291C39.4354 41.4291 39.7393 41.3531 40.0011 41.2012C40.2712 41.0408 40.4781 40.8212 40.6216 40.5426C40.7736 40.264 40.8495 39.9474 40.8495 39.5929C40.8495 39.2383 40.7736 38.9259 40.6216 38.6557C40.4696 38.3856 40.2628 38.1745 40.0011 38.0225C39.7393 37.8621 39.4354 37.7819 39.0893 37.7819C38.7516 37.7819 38.4476 37.8621 38.1775 38.0225C37.9157 38.1745 37.7089 38.3856 37.5569 38.6557C37.4134 38.9259 37.3417 39.2383 37.3417 39.5929C37.3417 39.9474 37.4134 40.264 37.5569 40.5426C37.7089 40.8212 37.9157 41.0408 38.1775 41.2012C38.4476 41.3531 38.7516 41.4291 39.0893 41.4291Z" fill="#3F7FFF"/>
<path d="M45.9338 42.7715C45.4188 42.7715 44.9587 42.6575 44.5534 42.4296C44.1566 42.2016 43.8443 41.8892 43.6163 41.4924C43.3968 41.0872 43.287 40.6228 43.287 40.0994V36.5662H44.6801V40.0361C44.6801 40.3316 44.7265 40.5849 44.8194 40.7959C44.9207 40.9985 45.0642 41.1547 45.2499 41.2645C45.4441 41.3742 45.6721 41.4291 45.9338 41.4291C46.339 41.4291 46.6472 41.3109 46.8583 41.0745C47.0778 40.8297 47.1875 40.4835 47.1875 40.0361V36.5662H48.5805V40.0994C48.5805 40.6313 48.4666 41.0999 48.2386 41.5051C48.0191 41.9019 47.711 42.2143 47.3142 42.4422C46.9174 42.6617 46.4572 42.7715 45.9338 42.7715Z" fill="#3F7FFF"/>
<path d="M54.1476 42.6448V39.137C54.1476 38.7317 54.0167 38.3982 53.755 38.1365C53.5017 37.8748 53.1725 37.7439 52.7672 37.7439C52.4971 37.7439 52.2565 37.803 52.0454 37.9212C51.8343 38.0394 51.6697 38.204 51.5515 38.4151C51.4333 38.6262 51.3742 38.8668 51.3742 39.137L50.8297 38.833C50.8297 38.3687 50.931 37.9592 51.1336 37.6046C51.3362 37.2416 51.6148 36.9588 51.9694 36.7561C52.3324 36.5451 52.7377 36.4395 53.1851 36.4395C53.641 36.4395 54.0463 36.5577 54.4009 36.7941C54.7555 37.0221 55.0341 37.3218 55.2367 37.6933C55.4393 38.0563 55.5406 38.4362 55.5406 38.833V42.6448H54.1476ZM49.9812 42.6448V36.5662H51.3742V42.6448H49.9812Z" fill="#3F7FFF"/>
<path d="M59.5017 42.7715C58.9529 42.7715 58.4548 42.6322 58.0073 42.3536C57.5683 42.075 57.2179 41.6993 56.9562 41.2265C56.7029 40.7453 56.5763 40.2092 56.5763 39.6182C56.5763 39.0188 56.7029 38.4827 56.9562 38.0099C57.2179 37.5286 57.5683 37.1487 58.0073 36.8701C58.4548 36.5831 58.9529 36.4395 59.5017 36.4395C59.966 36.4395 60.3755 36.5409 60.73 36.7435C61.0931 36.9377 61.3801 37.2078 61.5912 37.554C61.8023 37.9001 61.9078 38.2927 61.9078 38.7317V40.4793C61.9078 40.9183 61.8023 41.3109 61.5912 41.6571C61.3886 42.0032 61.1057 42.2776 60.7427 42.4802C60.3797 42.6744 59.966 42.7715 59.5017 42.7715ZM59.7296 41.4544C60.0757 41.4544 60.3755 41.3785 60.6287 41.2265C60.8905 41.0661 61.0931 40.8466 61.2366 40.568C61.3801 40.2894 61.4519 39.9685 61.4519 39.6055C61.4519 39.2425 61.3801 38.9217 61.2366 38.6431C61.0931 38.3645 60.8905 38.1492 60.6287 37.9972C60.3755 37.8368 60.08 37.7566 59.7423 37.7566C59.3961 37.7566 59.0922 37.8368 58.8305 37.9972C58.5772 38.1492 58.3746 38.3645 58.2226 38.6431C58.0791 38.9217 58.0073 39.2425 58.0073 39.6055C58.0073 39.9685 58.0791 40.2894 58.2226 40.568C58.3746 40.8466 58.5772 41.0661 58.8305 41.2265C59.0922 41.3785 59.3919 41.4544 59.7296 41.4544ZM62.7563 42.6448H61.3632V41.0112L61.6039 39.5295L61.3632 38.0605V33.5269H62.7563V42.6448Z" fill="#3F7FFF"/>
<path d="M66.8375 42.6448V36.5662H68.2305V42.6448H66.8375ZM70.8773 42.6448V39.023C70.8773 38.6177 70.7506 38.3054 70.4974 38.0859C70.2441 37.8579 69.9317 37.7439 69.5602 37.7439C69.307 37.7439 69.079 37.7946 68.8764 37.8959C68.6822 37.9972 68.526 38.1449 68.4078 38.3391C68.2896 38.5249 68.2305 38.7528 68.2305 39.023L67.686 38.719C67.686 38.2547 67.7873 37.8537 67.9899 37.516C68.1925 37.1783 68.4669 36.9166 68.8131 36.7308C69.1592 36.5366 69.5476 36.4395 69.9781 36.4395C70.4087 36.4395 70.7971 36.5324 71.1432 36.7182C71.4894 36.9039 71.7637 37.1656 71.9664 37.5033C72.169 37.841 72.2703 38.2463 72.2703 38.719V42.6448H70.8773ZM74.9171 42.6448V39.023C74.9171 38.6177 74.7904 38.3054 74.5371 38.0859C74.2839 37.8579 73.9715 37.7439 73.6 37.7439C73.3552 37.7439 73.1314 37.7946 72.9288 37.8959C72.7262 37.9972 72.5658 38.1449 72.4476 38.3391C72.3294 38.5249 72.2703 38.7528 72.2703 39.023L71.4851 38.719C71.5274 38.2547 71.6624 37.8537 71.8904 37.516C72.1183 37.1783 72.4096 36.9166 72.7642 36.7308C73.1272 36.5366 73.524 36.4395 73.9546 36.4395C74.3936 36.4395 74.7904 36.5324 75.145 36.7182C75.4996 36.9039 75.7824 37.1656 75.9935 37.5033C76.2045 37.841 76.3101 38.2463 76.3101 38.719V42.6448H74.9171Z" fill="#3F7FFF"/>
<path d="M80.2907 42.7715C79.7419 42.7715 79.2438 42.6322 78.7963 42.3536C78.3573 42.075 78.007 41.6993 77.7452 41.2265C77.492 40.7453 77.3653 40.2092 77.3653 39.6182C77.3653 39.0188 77.492 38.4827 77.7452 38.0099C78.007 37.5286 78.3573 37.1487 78.7963 36.8701C79.2438 36.5831 79.7419 36.4395 80.2907 36.4395C80.755 36.4395 81.1645 36.5409 81.5191 36.7435C81.8821 36.9377 82.1692 37.2078 82.3802 37.554C82.5913 37.9001 82.6968 38.2927 82.6968 38.7317V40.4793C82.6968 40.9183 82.5913 41.3109 82.3802 41.6571C82.1776 42.0032 81.8948 42.2776 81.5318 42.4802C81.1687 42.6744 80.755 42.7715 80.2907 42.7715ZM80.5186 41.4544C81.0336 41.4544 81.4473 41.2814 81.7597 40.9352C82.0805 40.5891 82.2409 40.1458 82.2409 39.6055C82.2409 39.2425 82.1692 38.9217 82.0256 38.6431C81.8821 38.3645 81.6795 38.1492 81.4178 37.9972C81.1645 37.8368 80.8648 37.7566 80.5186 37.7566C80.1809 37.7566 79.8812 37.8368 79.6195 37.9972C79.3662 38.1492 79.1636 38.3645 79.0116 38.6431C78.8681 38.9217 78.7963 39.2425 78.7963 39.6055C78.7963 39.9685 78.8681 40.2894 79.0116 40.568C79.1636 40.8466 79.3662 41.0661 79.6195 41.2265C79.8812 41.3785 80.1809 41.4544 80.5186 41.4544ZM82.1523 42.6448V41.0112L82.3929 39.5295L82.1523 38.0605V36.5662H83.5453V42.6448H82.1523Z" fill="#3F7FFF"/>
<path d="M85.0913 42.6448V36.5662H86.4843V42.6448H85.0913ZM86.4843 39.2636L86.0031 39.023C86.0031 38.2547 86.1719 37.6342 86.5096 37.1614C86.8558 36.6802 87.375 36.4395 88.0673 36.4395C88.3712 36.4395 88.6456 36.4944 88.8904 36.6042C89.1353 36.7139 89.3632 36.8912 89.5743 37.1361L88.6625 38.0732C88.5527 37.955 88.4303 37.8706 88.2952 37.8199C88.1602 37.7693 88.004 37.7439 87.8267 37.7439C87.4383 37.7439 87.1175 37.8663 86.8642 38.1112C86.611 38.356 86.4843 38.7402 86.4843 39.2636Z" fill="#3F7FFF"/>
<path d="M94.1108 42.6448L91.5401 39.5422L94.0982 36.5662H95.7571L92.8191 39.9094L92.8824 39.1116L95.8838 42.6448H94.1108ZM90.2483 42.6448V33.5269H91.6414V42.6448H90.2483Z" fill="#3F7FFF"/>
<path d="M99.2312 42.7715C98.6233 42.7715 98.0746 42.6364 97.5849 42.3662C97.1037 42.0876 96.7195 41.7077 96.4325 41.2265C96.1539 40.7453 96.0146 40.2049 96.0146 39.6055C96.0146 39.0061 96.1539 38.47 96.4325 37.9972C96.7111 37.516 97.0868 37.1361 97.5596 36.8575C98.0408 36.5788 98.5727 36.4395 99.1552 36.4395C99.7209 36.4395 100.219 36.5704 100.65 36.8321C101.089 37.0938 101.43 37.4527 101.675 37.9086C101.929 38.3645 102.055 38.8837 102.055 39.4662C102.055 39.5675 102.047 39.6731 102.03 39.7828C102.021 39.8841 102.005 39.9981 101.979 40.1247H96.9897V38.985H101.257L100.738 39.4409C100.721 39.0694 100.65 38.757 100.523 38.5038C100.396 38.2505 100.215 38.0563 99.9784 37.9212C99.7504 37.7861 99.4676 37.7186 99.1299 37.7186C98.7753 37.7186 98.4671 37.7946 98.2054 37.9465C97.9437 38.0985 97.7411 38.3138 97.5976 38.5924C97.454 38.8626 97.3823 39.1876 97.3823 39.5675C97.3823 39.9474 97.4583 40.2809 97.6102 40.568C97.7622 40.855 97.9775 41.0787 98.2561 41.2392C98.5347 41.3911 98.8555 41.4671 99.2185 41.4671C99.5309 41.4671 99.818 41.4122 100.08 41.3025C100.35 41.1927 100.578 41.0323 100.764 40.8212L101.65 41.7204C101.355 42.0665 100.996 42.3282 100.574 42.5055C100.151 42.6828 99.704 42.7715 99.2312 42.7715Z" fill="#3F7FFF"/>
<path d="M103.948 42.6448V34.0334H105.341V42.6448H103.948ZM102.492 37.8326V36.5662H106.797V37.8326H102.492Z" fill="#3F7FFF"/>
<path d="M107.822 42.6448V36.5662H109.215V42.6448H107.822ZM108.519 35.4518C108.282 35.4518 108.084 35.3716 107.924 35.2112C107.772 35.0507 107.696 34.8523 107.696 34.6159C107.696 34.3796 107.772 34.1812 107.924 34.0207C108.084 33.8603 108.282 33.7801 108.519 33.7801C108.764 33.7801 108.962 33.8603 109.114 34.0207C109.266 34.1812 109.342 34.3796 109.342 34.6159C109.342 34.8523 109.266 35.0507 109.114 35.2112C108.962 35.3716 108.764 35.4518 108.519 35.4518Z" fill="#3F7FFF"/>
<path d="M114.944 42.6448V39.137C114.944 38.7317 114.813 38.3982 114.552 38.1365C114.298 37.8748 113.969 37.7439 113.564 37.7439C113.294 37.7439 113.053 37.803 112.842 37.9212C112.631 38.0394 112.466 38.204 112.348 38.4151C112.23 38.6262 112.171 38.8668 112.171 39.137L111.626 38.833C111.626 38.3687 111.727 37.9592 111.93 37.6046C112.133 37.2416 112.411 36.9588 112.766 36.7561C113.129 36.5451 113.534 36.4395 113.982 36.4395C114.438 36.4395 114.843 36.5577 115.197 36.7941C115.552 37.0221 115.831 37.3218 116.033 37.6933C116.236 38.0563 116.337 38.4362 116.337 38.833V42.6448H114.944ZM110.778 42.6448V36.5662H112.171V42.6448H110.778Z" fill="#3F7FFF"/>
<path d="M120.285 45.3043C119.644 45.3043 119.082 45.1861 118.601 44.9497C118.12 44.7217 117.732 44.3967 117.436 43.9746L118.348 43.0628C118.593 43.3667 118.871 43.5946 119.184 43.7466C119.496 43.8986 119.872 43.9746 120.311 43.9746C120.86 43.9746 121.294 43.831 121.615 43.544C121.936 43.2654 122.096 42.8812 122.096 42.3916V40.8972L122.337 39.5549L122.096 38.1998V36.5662H123.489V42.3916C123.489 42.9741 123.354 43.4807 123.084 43.9112C122.814 44.3502 122.438 44.6922 121.957 44.937C121.476 45.1818 120.919 45.3043 120.285 45.3043ZM120.222 42.5182C119.682 42.5182 119.192 42.3873 118.753 42.1256C118.323 41.8555 117.981 41.4882 117.727 41.0239C117.483 40.5595 117.36 40.0403 117.36 39.4662C117.36 38.8921 117.483 38.3771 117.727 37.9212C117.981 37.4653 118.323 37.1065 118.753 36.8448C119.192 36.5746 119.682 36.4395 120.222 36.4395C120.703 36.4395 121.126 36.5366 121.489 36.7308C121.852 36.925 122.134 37.1952 122.337 37.5413C122.54 37.879 122.641 38.2758 122.641 38.7317V40.226C122.641 40.6735 122.535 41.0703 122.324 41.4165C122.122 41.7626 121.839 42.0328 121.476 42.2269C121.113 42.4211 120.695 42.5182 120.222 42.5182ZM120.501 41.2012C120.838 41.2012 121.134 41.1294 121.387 40.9859C121.641 40.8424 121.835 40.644 121.97 40.3907C122.113 40.129 122.185 39.825 122.185 39.4789C122.185 39.1327 122.113 38.833 121.97 38.5797C121.835 38.318 121.641 38.1154 121.387 37.9719C121.134 37.8284 120.838 37.7566 120.501 37.7566C120.163 37.7566 119.863 37.8284 119.602 37.9719C119.348 38.1154 119.15 38.318 119.006 38.5797C118.863 38.833 118.791 39.1327 118.791 39.4789C118.791 39.8166 118.863 40.1163 119.006 40.378C119.15 40.6397 119.348 40.8424 119.602 40.9859C119.863 41.1294 120.163 41.2012 120.501 41.2012Z" fill="#3F7FFF"/>
<path d="M107.122 16.7885C107.122 16.7885 106.766 16.6101 106.302 16.4673C105.195 16.1105 103.982 16.1105 102.912 16.2532C101.627 16.4317 100.45 17.1096 99.6288 18.1088C98.9508 18.9295 98.594 20 98.4869 21.0705C98.3799 22.141 98.5583 23.2472 99.0936 24.2107C99.8072 25.531 101.128 26.4587 102.591 26.8156C103.875 27.1367 105.481 26.9226 106.409 26.6015C106.801 26.4587 107.122 26.2446 107.122 26.2446V26.8156H110.298V16.3603H107.122V16.7885ZM107.122 24.2107C106.551 24.7102 105.338 24.9243 104.482 24.8173C103.59 24.6746 102.912 24.3891 102.305 23.7111C101.841 23.1758 101.663 22.3908 101.663 21.5344C101.663 20.7494 101.841 19.9286 102.341 19.3577C102.983 18.6083 103.732 18.3586 104.41 18.2515C105.267 18.1445 106.337 18.3586 107.087 18.8581L107.122 24.2107Z" fill="#3F7FFF"/>
<path d="M71.0463 10.5798C69.6904 9.86611 68.0489 9.50928 66.1577 9.50928H60.377V26.7801H66.1577C68.0489 26.7801 69.6904 26.4233 71.0463 25.7096C72.4023 24.996 73.4371 23.9968 74.1508 22.6765C74.8645 21.3919 75.2213 19.8575 75.2213 18.109C75.2213 16.3605 74.8645 14.8618 74.1508 13.5772C73.4371 12.2926 72.4023 11.2935 71.0463 10.5798ZM70.4754 22.284C69.4406 23.2831 68.0132 23.7827 66.0863 23.7827H63.5528V12.471H66.0863C67.9776 12.471 69.4406 12.9706 70.4754 13.9697C71.5102 14.9689 72.0098 16.3605 72.0098 18.109C72.0098 19.8932 71.5102 21.2849 70.4754 22.284Z" fill="#3F7FFF"/>
<path d="M92.9202 10.5798C91.5643 9.86617 89.9228 9.50934 88.0316 9.50934H82.2509V26.7802H88.0316C89.9228 26.7802 91.5643 26.4234 92.9202 25.7097C94.2762 24.996 95.311 23.9969 96.0247 22.6766C96.7384 21.392 97.0952 19.8576 97.0952 18.1091C97.0952 16.3606 96.7384 14.8619 96.0247 13.5773C95.311 12.2927 94.2762 11.2935 92.9202 10.5798ZM92.3493 22.2841C91.3145 23.2832 89.8871 23.7828 87.9602 23.7828H85.4267V12.4711H87.9602C89.8515 12.4711 91.3145 12.9707 92.3493 13.9698C93.3841 14.9689 93.8837 16.3606 93.8837 18.1091C93.848 19.8933 93.3485 21.2849 92.3493 22.2841Z" fill="#3F7FFF"/>
<path d="M80.1807 16.3608H77.0049V26.8161H80.1807V16.3608Z" fill="#3F7FFF"/>
<path d="M78.5763 10.7935C78.0053 10.7935 77.5414 10.9719 77.2203 11.293C76.8634 11.6142 76.7207 12.0424 76.7207 12.542C76.7207 13.0415 76.8991 13.434 77.2203 13.7552C77.5771 14.0763 78.0053 14.2191 78.5763 14.2191C79.1472 14.2191 79.6111 14.0763 79.9679 13.7552C80.3247 13.434 80.5032 13.0415 80.5032 12.542C80.5032 12.0424 80.3247 11.6499 79.9679 11.293C79.5754 10.9719 79.1472 10.7935 78.5763 10.7935Z" fill="#3F7FFF"/>
<path d="M120.539 16.3608L118.041 22.6412L115.543 16.3608H112.082L116.364 26.5663L114.651 30.67H118.148L124 16.3608H120.539Z" fill="#3F7FFF"/>
<path d="M44.0332 29.9209C45.7477 29.9209 47.1377 28.5309 47.1377 26.8164C47.1377 25.1018 45.7477 23.7119 44.0332 23.7119C42.3186 23.7119 40.9287 25.1018 40.9287 26.8164C40.9287 28.5309 42.3186 29.9209 44.0332 29.9209Z" fill="#3F7FFF"/>
<path d="M48.494 15.6115C45.6393 12.4 42.6776 9.58101 40.6436 9.58101H40.0013C38.6096 9.58101 37.4678 8.43914 37.4678 7.04748C37.4678 5.72719 36.4329 4.62099 35.1126 4.51394L0 0.695801L3.38994 4.87078L31.8654 7.58273C32.365 7.61842 32.7575 8.0823 32.7932 8.65324C32.8289 9.29555 32.365 9.8308 31.7941 9.79511L6.10189 8.18935L8.74248 11.4722L33.5069 12.8996C33.9708 12.9353 34.3633 13.3635 34.399 13.8987C34.4347 14.5053 34.0064 15.0406 33.4712 15.0049L11.0619 14.3626L13.7382 17.6455L35.077 18.1094C35.5052 18.1451 35.8977 18.5376 35.9334 19.0372C36.0047 19.6081 35.6122 20.1434 35.1126 20.1434H15.7721L21.196 26.8519H39.8229C39.8229 24.5324 41.7141 22.6412 44.0335 22.6412C46.3173 22.6412 48.1728 24.4968 48.2085 26.7805C51.0275 26.5307 51.9553 25.2818 51.9553 22.106C51.9553 20.3931 51.5271 19.0015 48.494 15.6115Z" fill="#3F7FFF"/>
</svg>
