<svg width="48" height="48" viewBox="0 0 48 48" fill="none" xmlns="http://www.w3.org/2000/svg">
<g filter="url(#filter0_d_1_289)">
<circle cx="24" cy="22" r="20" fill="white"/>
<rect x="12.8887" y="11.6299" width="5.92593" height="5.92593" fill="#4985FF"/>
<rect x="12.8887" y="11.6299" width="5.92593" height="5.92593" fill="#4985FF"/>
<rect x="12.8887" y="11.6299" width="5.92593" height="5.92593" fill="#4985FF"/>
<rect x="21.0368" y="11.6299" width="5.92593" height="5.92593" fill="#4985FF"/>
<rect x="21.0368" y="11.6299" width="5.92593" height="5.92593" fill="#4985FF"/>
<rect x="21.0368" y="11.6299" width="5.92593" height="5.92593" fill="#4985FF"/>
<rect x="12.8887" y="26.4447" width="5.92593" height="5.92593" fill="#4985FF"/>
<rect x="12.8887" y="26.4447" width="5.92593" height="5.92593" fill="#4985FF"/>
<rect x="12.8887" y="26.4447" width="5.92593" height="5.92593" fill="#4985FF"/>
<rect x="21.0368" y="26.4447" width="5.92593" height="5.92593" fill="#4985FF"/>
<rect x="21.0368" y="26.4447" width="5.92593" height="5.92593" fill="#4985FF"/>
<rect x="21.0368" y="26.4447" width="5.92593" height="5.92593" fill="#4985FF"/>
<rect x="29.185" y="11.6299" width="5.92593" height="5.92593" fill="#4985FF"/>
<rect x="29.185" y="11.6299" width="5.92593" height="5.92593" fill="#4985FF"/>
<rect x="29.185" y="11.6299" width="5.92593" height="5.92593" fill="#4985FF"/>
<rect x="29.185" y="19.0373" width="5.92593" height="5.92593" fill="#4985FF"/>
<rect x="29.185" y="19.0373" width="5.92593" height="5.92593" fill="#4985FF"/>
<rect x="29.185" y="19.0373" width="5.92593" height="5.92593" fill="#4985FF"/>
<rect x="29.185" y="26.4447" width="5.92593" height="5.92593" fill="#4985FF"/>
<rect x="29.185" y="26.4447" width="5.92593" height="5.92593" fill="#4985FF"/>
<rect x="29.185" y="26.4447" width="5.92593" height="5.92593" fill="#4985FF"/>
<rect x="21.0368" y="19.0373" width="5.92593" height="5.92593" fill="#4985FF"/>
<rect x="21.0368" y="19.0373" width="5.92593" height="5.92593" fill="#4985FF"/>
<rect x="21.0368" y="19.0373" width="5.92593" height="5.92593" fill="#4985FF"/>
<rect x="12.8887" y="19.0373" width="5.92593" height="5.92593" fill="#4985FF"/>
<rect x="12.8887" y="19.0373" width="5.92593" height="5.92593" fill="#4985FF"/>
<rect x="12.8887" y="19.0373" width="5.92593" height="5.92593" fill="#4985FF"/>
</g>
<defs>
<filter id="filter0_d_1_289" x="0" y="0" width="48" height="48" filterUnits="userSpaceOnUse" color-interpolation-filters="sRGB">
<feFlood flood-opacity="0" result="BackgroundImageFix"/>
<feColorMatrix in="SourceAlpha" type="matrix" values="0 0 0 0 0 0 0 0 0 0 0 0 0 0 0 0 0 0 127 0" result="hardAlpha"/>
<feOffset dy="2"/>
<feGaussianBlur stdDeviation="2"/>
<feComposite in2="hardAlpha" operator="out"/>
<feColorMatrix type="matrix" values="0 0 0 0 0 0 0 0 0 0 0 0 0 0 0 0 0 0 0.25 0"/>
<feBlend mode="normal" in2="BackgroundImageFix" result="effect1_dropShadow_1_289"/>
<feBlend mode="normal" in="SourceGraphic" in2="effect1_dropShadow_1_289" result="shape"/>
</filter>
</defs>
</svg>
