<svg width="18" height="21" viewBox="0 0 18 21" fill="none" xmlns="http://www.w3.org/2000/svg">
<path d="M16.2784 16.4864C14.5278 16.227 12.9141 15.4565 11.611 14.2586C10.2801 13.0349 9.37844 11.4522 9.00312 9.68148C8.51402 7.37404 8.971 5.01842 10.29 3.0488C10.5915 2.59857 10.5898 2.0131 10.2857 1.56653C9.98261 1.12179 9.43924 0.902578 8.9083 1.01059C8.89293 1.01362 8.87976 1.01619 8.86663 1.01897C6.23121 1.57759 3.96923 3.12032 2.49704 5.3631C1.02508 7.60583 0.519671 10.2798 1.07358 12.893C1.62749 15.5062 3.17444 17.7449 5.42953 19.1979C7.68474 20.6503 10.3781 21.1429 13.0138 20.5843C14.4165 20.2869 15.7121 19.7128 16.8644 18.878C17.3044 18.5591 17.508 18.0091 17.3795 17.4849C17.2512 16.9605 16.8162 16.5664 16.2784 16.4868L16.2784 16.4864Z" fill="#898989"/>
</svg>
