<svg width="48" height="48" viewBox="0 0 48 48" fill="none" xmlns="http://www.w3.org/2000/svg">
<g filter="url(#filter0_d_1_286)">
<circle cx="24" cy="22" r="20" fill="white"/>
<path fill-rule="evenodd" clip-rule="evenodd" d="M14 23.015C14 17.7471 18.21 13 24.02 13C29.7 13 34 17.657 34 22.985C34 29.1642 28.96 33 24 33C22.36 33 20.54 32.5593 19.08 31.698C18.57 31.3876 18.14 31.1572 17.59 31.3375L15.57 31.9384C15.06 32.0986 14.6 31.698 14.75 31.1572L15.42 28.9139C15.53 28.6034 15.51 28.2729 15.35 28.0125C14.49 26.4301 14 24.6975 14 23.015ZM22.7 23.015C22.7 23.7261 23.27 24.2969 23.98 24.307C24.69 24.307 25.26 23.7261 25.26 23.025C25.26 22.314 24.69 21.7431 23.98 21.7431C23.28 21.7331 22.7 22.314 22.7 23.015ZM27.31 23.025C27.31 23.7261 27.88 24.307 28.59 24.307C29.3 24.307 29.87 23.7261 29.87 23.025C29.87 22.314 29.3 21.7431 28.59 21.7431C27.88 21.7431 27.31 22.314 27.31 23.025ZM19.37 24.307C18.67 24.307 18.09 23.7261 18.09 23.025C18.09 22.314 18.66 21.7431 19.37 21.7431C20.08 21.7431 20.65 22.314 20.65 23.025C20.65 23.7261 20.08 24.2969 19.37 24.307Z" fill="#3F7FFF"/>
<circle cx="32" cy="16" r="4" fill="#F9837C" stroke="white" stroke-width="2"/>
</g>
<defs>
<filter id="filter0_d_1_286" x="0" y="0" width="48" height="48" filterUnits="userSpaceOnUse" color-interpolation-filters="sRGB">
<feFlood flood-opacity="0" result="BackgroundImageFix"/>
<feColorMatrix in="SourceAlpha" type="matrix" values="0 0 0 0 0 0 0 0 0 0 0 0 0 0 0 0 0 0 127 0" result="hardAlpha"/>
<feOffset dy="2"/>
<feGaussianBlur stdDeviation="2"/>
<feComposite in2="hardAlpha" operator="out"/>
<feColorMatrix type="matrix" values="0 0 0 0 0 0 0 0 0 0 0 0 0 0 0 0 0 0 0.25 0"/>
<feBlend mode="normal" in2="BackgroundImageFix" result="effect1_dropShadow_1_286"/>
<feBlend mode="normal" in="SourceGraphic" in2="effect1_dropShadow_1_286" result="shape"/>
</filter>
</defs>
</svg>
