<svg width="21" height="21" viewBox="0 0 21 21" fill="none" xmlns="http://www.w3.org/2000/svg">
<path fill-rule="evenodd" clip-rule="evenodd" d="M10.5212 6.99672C11.4561 6.99672 12.2211 6.2318 12.2211 5.2969C12.2211 4.362 11.4561 3.59708 10.5212 3.59708C9.58633 3.59708 8.82141 4.362 8.82141 5.2969C8.82141 6.2318 9.58633 6.99672 10.5212 6.99672ZM10.5213 8.69656C9.58645 8.69656 8.82153 9.46148 8.82153 10.3964C8.82153 11.3313 9.58645 12.0962 10.5213 12.0962C11.4563 12.0962 12.2212 11.3313 12.2212 10.3964C12.2212 9.46148 11.4563 8.69656 10.5213 8.69656ZM10.5213 13.7959C9.58645 13.7959 8.82153 14.5608 8.82153 15.4957C8.82153 16.4306 9.58645 17.1955 10.5213 17.1955C11.4563 17.1955 12.2212 16.4306 12.2212 15.4957C12.2212 14.5608 11.4563 13.7959 10.5213 13.7959Z" fill="#898989"/>
</svg>
